<svg version="1.1" xmlns="http://www.w3.org/2000/svg" style="display: block;" viewBox="0 0 2048 2048" width="512" height="512" preserveAspectRatio="xMidYMid meet">
<defs>
	<linearGradient id="Gradient1" gradientUnits="userSpaceOnUse" x1="987.383" y1="1852.75" x2="1051.92" y2="166.997">
		<stop class="stop0" offset="0" stop-opacity="1" stop-color="rgb(34,18,5)"/>
		<stop class="stop1" offset="1" stop-opacity="1" stop-color="rgb(62,17,2)"/>
	</linearGradient>
</defs>

  <!-- background -->
  

  <!-- main outline / drop shadow -->
  <g id="outline">
    <path transform="translate(0,0)" fill="url(#Gradient1)" d="M 482.816 937.814 C 476.555 935.418 466.085 932.756 459.65 931.119 C 289.426 887.827 181.592 742.395 321.208 590.348 C 368.899 538.411 426.582 496.138 479.181 448.614 C 515.466 415.83 552.095 378.333 588.674 345.308 C 707.214 238.98 839.121 173.128 1000.2 166.076 C 1167.7 158.744 1318.36 218.991 1443.78 328.857 C 1486.32 366.162 1524.1 408.101 1565.04 447.148 C 1620.41 499.951 1685.73 542.233 1736.51 599.719 C 1771.49 639.31 1800.41 698.819 1802.86 751.905 C 1805.42 801.972 1787.66 850.951 1753.61 887.744 C 1707.01 938.407 1638.42 955.462 1572.15 958.259 C 1574.59 965.994 1576.67 973.839 1578.38 981.768 C 1582.35 1000.15 1582.83 1013.45 1583.27 1031.53 C 1584.55 1084.07 1572.05 1109.72 1544.6 1151.97 C 1579.05 1217.56 1555.16 1262.09 1489.39 1288.99 C 1520.47 1318.16 1549.15 1356.1 1565.23 1395.64 C 1573.86 1416.84 1580.41 1434.03 1564.13 1453.74 C 1571.7 1482.9 1577.22 1511.38 1562.94 1539.44 C 1551.95 1561.02 1528.24 1577.94 1505.4 1584.92 C 1474.71 1594.29 1454.81 1594.85 1426.44 1580.4 C 1424.87 1587.12 1423.81 1591.23 1421.54 1597.74 C 1411.86 1602.65 1405.1 1606.33 1395.77 1611.99 C 1398.19 1667.25 1389.43 1689.81 1364.09 1738.06 C 1370.24 1753.16 1372.26 1760.47 1373.6 1776.67 C 1559.92 1803.33 1489.15 1839.34 1354.46 1855.1 C 1187.16 1874.67 1021.35 1875.31 853.26 1868.1 C 811.486 1866.54 769.772 1863.64 728.182 1859.42 C 685.304 1855.33 644.217 1850.38 602.542 1839.35 C 560.213 1828.15 540.574 1809.56 594.709 1792.66 C 620.907 1784.48 645.499 1782.6 672.004 1777.71 C 673.57 1765.82 677.597 1747.34 676.892 1735.92 C 675.266 1709.59 660.341 1683.81 653.829 1658.18 C 649.383 1640.68 649.709 1629.67 649.999 1612.09 C 645.675 1609.41 640.946 1606.82 636.372 1604.62 C 622.956 1598.15 622.915 1594.02 623.103 1580.62 L 622.223 1581.09 C 596.499 1594.57 571.964 1593.44 545.013 1584.68 C 479.878 1563.51 462.592 1516.78 483.591 1453.28 C 477.089 1444.92 472.219 1438.13 473.858 1427.04 C 480.877 1379.54 526.378 1318.31 560.566 1288.01 C 494.483 1261 475.144 1223.25 499.624 1155.52 C 493.383 1145.52 485.994 1135.4 481.124 1124.81 C 453.421 1064.56 461.291 998.108 482.816 937.814 z"/>
  </g>

  <!-- legs and feet -->
  <g id="legs">
    <path transform="translate(0,0)" fill="rgb(254,238,210)" d="M 1042.11 1752.26 C 1058.21 1752.04 1073.99 1749.53 1090.21 1748.81 C 1092.52 1775.1 1092.64 1796.02 1115.87 1815.41 C 1155.02 1846.38 1213.19 1849.39 1261.33 1847.62 C 1273.12 1847.18 1286.92 1843.71 1298.41 1841.57 C 1337.92 1834.24 1371.31 1823.18 1373.6 1776.67 C 1559.92 1803.33 1489.15 1839.34 1354.46 1855.1 C 1187.16 1874.67 1021.35 1875.31 853.26 1868.1 C 811.486 1866.54 769.772 1863.64 728.182 1859.42 C 685.304 1855.33 644.217 1850.38 602.542 1839.35 C 560.213 1828.15 540.574 1809.56 594.709 1792.66 C 620.907 1784.48 645.499 1782.6 672.004 1777.71 C 672.325 1816.38 703.291 1830.96 735.992 1838.24 C 753.119 1842.05 769.653 1847 787.507 1847.1 C 834.987 1847.36 893.107 1847.76 929.952 1813.28 C 949.228 1795.27 951.421 1774.22 952.601 1749.33 C 973.292 1751.32 1021.89 1754.42 1042.11 1752.26 z"/>
    <path transform="translate(0,0)" fill="rgb(255,255,255)" d="M 1042.11 1752.26 C 1058.21 1752.04 1073.99 1749.53 1090.21 1748.81 C 1089.89 1752.61 1089.62 1756.08 1089.49 1759.9 C 1080.58 1759.86 1047.19 1760.37 1041.26 1756.65 L 1040.72 1754.52 L 1042.11 1752.26 z"/>
    <path transform="translate(0,0)" fill="#cacf88" d="M 1230.32 1656.58 C 1248.17 1652.88 1269.48 1651.07 1287.94 1647.78 C 1315.02 1642.96 1336.19 1636.27 1362.1 1627.93 C 1361.72 1661.06 1354.81 1680.42 1338.55 1709.76 C 1334.41 1717.23 1326.92 1729.33 1323.78 1736.73 C 1332.2 1750.15 1347.84 1760.76 1343.26 1779.56 C 1339.06 1796.78 1324.03 1802.43 1308.93 1806.93 C 1307.48 1794.01 1306.58 1785.42 1295.45 1777.03 C 1291.29 1773.9 1284.48 1769.54 1279.07 1770.64 C 1274.51 1780.42 1316.63 1823.72 1246.41 1818.91 C 1242.92 1808.05 1238.62 1791.44 1229.82 1784.35 L 1227.48 1784.1 C 1221.65 1789.28 1224.12 1807.59 1223.12 1816.13 C 1215.93 1816.19 1208.57 1816.44 1201.41 1815.9 C 1157.66 1812.61 1113.03 1790.73 1129.36 1738.71 C 1143.47 1734.31 1187.22 1723.88 1194.38 1710.85 C 1195.58 1708.68 1194.42 1705.22 1193.71 1702.83 C 1205.77 1698.38 1232.7 1668.94 1232.39 1657.51 L 1230.32 1656.58 z"/>
    <path transform="translate(0,0)" fill="#cacf88" d="M 685.373 1627.06 C 715.642 1638.38 741.617 1644.26 773.46 1649.41 C 785.094 1651.29 797.802 1652.59 809.116 1654.71 C 813.455 1671.17 835.991 1692.64 848.328 1703.42 C 848.141 1706.08 847.945 1709 849.387 1711.31 C 857.264 1723.91 902.818 1736.15 916.62 1739.94 C 917.389 1745.67 918.048 1751.3 918.23 1757.08 C 919.894 1809.67 859.655 1815.66 820.981 1814.99 C 821.183 1808.63 823.902 1784.23 814.967 1785.06 C 807.533 1790.94 802.727 1807.61 799.318 1817.08 C 756.604 1822.92 749.215 1807.39 766.044 1773.76 C 766.919 1772.01 766.098 1770.95 765.145 1769.67 C 759.62 1769.22 752.173 1774.26 748.172 1777.81 C 738.89 1786.03 737.177 1794.95 736.797 1806.75 C 719.577 1800.95 706.903 1796.71 702.527 1776.19 C 697.668 1753.42 723.086 1746.8 720.261 1731.07 C 719.312 1725.79 708.609 1707.01 705.856 1700.44 C 695.564 1675.9 689.116 1653.38 685.373 1627.06 z"/>
    <path transform="translate(0,0)" fill="rgb(254,238,210)" d="M 809.116 1654.71 C 842.378 1657.23 872.853 1661.36 906.978 1663.13 C 995.32 1667.68 1083.85 1667.16 1172.13 1661.57 C 1191.44 1660.36 1210.93 1658.12 1230.32 1656.58 L 1232.39 1657.51 C 1232.7 1668.94 1205.77 1698.38 1193.71 1702.83 C 1183.74 1697.12 1163.09 1706.4 1151.65 1709.45 C 1137.64 1713.11 1123.49 1716.21 1109.23 1718.73 C 1041.94 1731.09 964.164 1728.49 898.007 1711.16 C 882.828 1707.18 862.026 1693.05 848.328 1703.42 C 835.991 1692.64 813.455 1671.17 809.116 1654.71 z"/>
    <path transform="translate(0,0)" fill="#cacf88" d="M 514.548 1463.52 C 522.132 1468.92 531.051 1478.36 539.118 1484.56 C 562.969 1502.96 588.12 1519.6 614.374 1534.36 C 605.912 1553.9 593.244 1563.52 571.278 1558.57 C 549.341 1549.9 558.667 1532.19 554.92 1516.95 L 552.877 1516.72 C 541.739 1528.24 541.142 1535.53 540.697 1550.59 C 537.075 1549.26 534.391 1548.09 531.068 1546.06 C 518.889 1538.51 510.177 1526.47 506.824 1512.55 C 502.764 1495.59 505.724 1478.44 514.548 1463.52 z"/>
    <path transform="translate(0,0)" fill="#cacf88" d="M 1533.71 1464.99 C 1542.02 1474.43 1544.11 1509.93 1538.25 1522.24 C 1530.05 1539.48 1523.21 1544.09 1507.01 1551.16 C 1506.94 1539.33 1505.46 1525.35 1494.57 1518.3 L 1493.32 1518.84 C 1488.43 1533.92 1499.02 1547.19 1478.11 1559.14 L 1476.9 1559.82 C 1454.82 1561.45 1440.82 1554.86 1433.39 1532.91 C 1468.11 1517.51 1506.13 1490.97 1533.71 1464.99 z"/>
  </g>

  <!-- hoodie / body -->
  <g id="hoodie">
    <path transform="translate(0,0)" fill="rgb(90,76,76)" d="M 1484.63 1167.39 C 1508.63 1164.02 1527.36 1172.86 1528.63 1198.78 C 1531.76 1262.64 1442.97 1268.33 1399.29 1277.05 C 1322.63 1292.36 1246.12 1303.29 1169 1309.72 C 1152.52 1291 1132.98 1291.14 1130.56 1318.88 C 1120.72 1318.92 1094.89 1317.5 1088.5 1325.14 C 1088.04 1328.58 1087.7 1327.03 1089.51 1329.98 C 1096.4 1333.25 1121.68 1332.01 1131.3 1332.03 C 1132.71 1356.38 1133.7 1385.26 1136.14 1409.18 C 1130.93 1415.08 1126.85 1420.29 1125.2 1428.16 C 1123.66 1435.18 1125.05 1442.53 1129.06 1448.49 C 1151.91 1482.5 1207.03 1449.99 1172.65 1408.99 C 1170.07 1388.59 1169.01 1351.45 1168.92 1330.75 C 1180.27 1329.81 1192.46 1329.31 1203.87 1328.83 C 1287.63 1325.33 1367.65 1313.83 1449.9 1297.51 C 1485.84 1330.62 1505.94 1357.13 1530.14 1399.52 C 1493.74 1429.32 1461.74 1446.69 1420.37 1467.83 C 1415.04 1426.1 1411.89 1385.94 1398.68 1345.67 C 1396.61 1339.34 1394.46 1328.19 1389.37 1322.99 C 1387.31 1320.88 1385.97 1321.34 1383.73 1321.55 C 1377.72 1329.45 1386.32 1413.58 1387.26 1427.33 C 1389.1 1458.36 1389.96 1489.43 1389.84 1520.51 C 1368.38 1537.15 1303.07 1552.67 1276.59 1559.32 C 1266.6 1561.83 1254.61 1563.81 1244.72 1566.91 C 1241.37 1567.96 1236.51 1569.83 1235.01 1573.04 L 1236.1 1574.64 C 1246.4 1578.17 1281.81 1570.69 1294.05 1568.6 C 1327.44 1562.91 1358.76 1550.5 1389.42 1536.59 L 1391.91 1575.68 C 1329.99 1616.24 1214.68 1625.65 1142.71 1629.95 C 1068.54 1634.61 994.152 1634.94 919.936 1630.96 C 844.091 1627.27 719.713 1618.4 656.89 1573.94 C 656.721 1562.78 657.85 1548.88 659.028 1537.78 C 707.089 1566.86 779.431 1579.69 834.995 1585 C 843.346 1585.8 857.693 1583.3 862.376 1584.14 C 879.075 1587.14 893.602 1590.78 910.865 1592.25 C 998.225 1599.69 1094.31 1599.71 1180.78 1586.1 C 1189.74 1584.81 1220.59 1579.82 1226 1574.69 C 1222.24 1571.61 1161.43 1577.2 1151.87 1577.87 C 1072.9 1583.83 993.635 1584.93 914.529 1581.17 C 898.468 1580.49 882.302 1580.15 866.23 1579.59 C 857.097 1579.28 848.371 1573.17 839.589 1572.13 C 795.696 1566.89 691.802 1550.21 658.942 1521.63 C 658.786 1478.01 661.088 1434.85 663.426 1391.31 C 664.087 1379 668.55 1327.77 661.92 1321.45 C 660.816 1320.4 660.928 1320.85 659.093 1321.05 C 642.554 1335.15 632.42 1442.46 629.885 1467.3 C 591.541 1446.99 554.855 1423.7 520.165 1397.65 C 537.478 1360.59 565.291 1320.64 598.959 1297.3 C 627.602 1300.68 658.984 1309.19 687.525 1313.21 C 748.531 1321.81 820.688 1330.39 882.021 1330.61 C 881.238 1356.7 879.412 1383.47 877.878 1409.58 C 872.032 1416.92 867.133 1423.23 866.695 1433.14 C 866.365 1440.24 868.919 1447.16 873.776 1452.35 C 879.688 1458.68 887.945 1462.3 896.607 1462.36 C 912.405 1462.32 924.567 1451.64 925.52 1435.78 C 926.448 1425.32 918.935 1417.33 918.551 1406.89 C 917.649 1382.38 918.336 1357.47 918.635 1332.93 C 930.466 1332.68 948.515 1334.45 960.009 1332.19 C 962.117 1331.77 963.108 1329.46 963.796 1327.76 L 963.016 1326.09 C 954.575 1319.81 929.719 1319.71 918.572 1319.02 C 913.313 1294.7 894.272 1287.41 881.81 1311.35 C 819.279 1305.31 757.035 1296.6 695.248 1285.25 C 662.705 1279.5 630.68 1274.04 598.473 1266.23 C 558.976 1256.66 511.272 1235.23 522.397 1185.81 C 527.908 1161.32 566.817 1171.8 584.278 1174.63 C 658.848 1186.7 732.032 1209.89 801.009 1240.51 C 829.082 1252.98 856.167 1267.95 884.766 1279.33 C 930.354 1296.94 977.231 1314.96 1023.72 1329.93 C 1033.03 1328.03 1043.05 1323.63 1052.07 1320.5 C 1082.29 1310.03 1110.85 1295.45 1140.09 1282.86 C 1180.13 1265.98 1219.42 1243.75 1259.79 1227.98 C 1329.42 1200.79 1410.37 1176.17 1484.63 1167.39 z"/>
    <path transform="translate(0,0)" fill="rgb(90,76,76)" d="M 517.2 1403.39 C 527.053 1409.69 549.965 1430.49 561.054 1438.89 C 584.234 1456.43 603.895 1467.55 629.103 1482.02 C 628.842 1488.25 628.658 1509.98 625.385 1513.96 L 623.011 1513.19 C 590.396 1494.21 561.786 1474.22 531.969 1451.03 C 524.69 1445.37 512.632 1436.87 506.953 1430.29 C 509.988 1421.19 513.649 1412.3 517.2 1403.39 z"/>
    <path transform="translate(0,0)" fill="rgb(90,76,76)" d="M 1533.11 1410.8 L 1534.52 1411.36 C 1536.93 1417.79 1539.47 1424.17 1542.14 1430.5 C 1514.4 1461.16 1463.95 1491.51 1427.27 1510.6 L 1423.16 1512.39 L 1422.18 1511.6 C 1421.02 1502.17 1421.12 1487.49 1420.9 1477.65 C 1443.71 1465.83 1469.8 1454.8 1491.4 1441.23 C 1504.39 1433.07 1520.02 1420.15 1533.11 1410.8 z"/>
    <path transform="translate(0,0)" fill="rgb(90,76,76)" d="M 1150.95 1423.99 C 1166.52 1423.75 1172.41 1436.04 1155.68 1443.58 C 1145.29 1445.45 1135.02 1432.2 1150.95 1423.99 z"/>
    <path transform="translate(0,0)" fill="rgb(90,76,76)" d="M 894.268 1423.96 C 908.329 1423.87 913.681 1434.88 898.902 1443.31 C 884.91 1443.25 877.999 1429.99 894.268 1423.96 z"/>
    <path transform="translate(0,0)" fill="rgb(90,76,76)" d="M 896.106 1310.63 C 903.674 1313.35 903.219 1319.85 899.695 1325.62 C 896.485 1323.37 894.196 1321.26 893.074 1317.51 C 893.616 1313.06 893.273 1314.6 896.106 1310.63 z"/>
  </g>

  <!-- head — green body -->
  <g id="head">
    <path transform="translate(0,0)" fill="#cacf88" d="M 1166.51 711.84 C 1163.2 719.159 1157.52 733.364 1161.86 740.674 C 1167.01 742.93 1171.47 739.818 1175.38 736.156 C 1185.5 726.317 1194.91 715.458 1204.79 705.379 C 1266.33 642.596 1359.99 638.17 1429.09 692.316 C 1478.78 731.256 1499.39 784.675 1502.14 846.992 C 1502.7 859.693 1498.25 873.405 1500.82 885.919 C 1504.51 896.716 1512.27 907.173 1518.06 916.876 C 1553.56 976.309 1555.8 1079.81 1512.57 1135.55 C 1493.24 1136.16 1469.48 1139.77 1450.19 1142.25 C 1373.63 1152.07 1305.37 1177.6 1235.73 1209.29 C 1206.89 1222.42 1177.51 1237.06 1148.08 1249.4 C 1112.17 1266.78 1059.22 1290.87 1022.63 1302.89 C 993.766 1291.37 964.92 1281.11 936.392 1268.32 C 923.231 1262.42 909.734 1257.48 896.797 1250.64 C 889.707 1248.82 871.274 1239.81 863.565 1236.26 C 842.111 1226.28 820.585 1216.45 798.99 1206.77 C 702.573 1164.59 640.34 1148.68 536.329 1138.97 C 514.608 1114.59 504.529 1082.5 501.984 1050.48 C 498.705 1009.23 509.017 968.551 525.333 930.942 C 529.32 921.751 538.619 905.062 540.369 896.573 C 542.865 884.466 540.372 863.929 539.799 850.794 C 537.715 803.106 549.514 755.355 581.11 718.547 C 610.098 684.777 650.986 659.353 696.111 655.92 C 748.739 651.917 791.165 667.88 829.077 703.965 C 840.531 714.867 850.376 727.711 862.335 738.064 C 865.27 740.605 866.279 740.582 870.024 740.184 C 880.713 733.312 873.096 718.291 868.154 709.898 C 932.743 690.915 1101.26 694.043 1166.51 711.84 z"/>
    <path transform="translate(0,0)" fill="rgb(254,238,210)" d="M 896.797 1250.64 C 909.155 1244.2 1014.44 1244.89 1036.45 1244.71 C 1064.03 1244.5 1121.34 1244.5 1148.08 1249.4 C 1112.17 1266.78 1059.22 1290.87 1022.63 1302.89 C 993.766 1291.37 964.92 1281.11 936.392 1268.32 C 923.231 1262.42 909.734 1257.48 896.797 1250.64 z"/>
  </g>

  <!-- mushroom hat -->
  <g id="hat">
    <path transform="translate(0,0)" fill="rgb(230,118,70)" d="M 826.822 229.101 C 837.941 222.868 863.072 215.524 876.047 212.04 C 968.403 187.24 1084.88 186.003 1177.11 211.933 C 1281.28 241.491 1376.02 297.534 1452.1 374.601 C 1455.57 377.668 1459.02 380.788 1462.52 383.826 C 1492.6 409.952 1516.28 441.709 1546.35 468.07 C 1550.74 472.909 1556.04 479.011 1559.59 484.497 C 1571.22 497.182 1607.21 526.637 1621.52 537.499 C 1687.86 587.854 1752.2 640.495 1767.12 727.988 C 1774.19 769.407 1766.59 814.705 1742.19 849.882 C 1708.36 898.658 1654.21 914.556 1598.05 923.714 C 1657.13 900.848 1738.96 856.977 1723.06 781.786 C 1706.26 702.333 1573.47 650.623 1506.03 627.44 C 1257.52 542.019 974.67 528.534 715.592 559.038 C 671.778 564.019 628.15 570.516 584.786 578.519 C 501.543 594.647 395.999 623.35 345.401 695.956 C 297.755 764.325 344.079 830.701 402.169 870.581 C 410.346 876.195 419.287 880.867 427.489 886.264 L 425.856 886.577 C 417.747 884.064 411.123 879.798 403.681 876.622 C 340.558 849.843 288.229 792.648 290.817 720.765 C 291.74 695.134 303.207 663.571 316.951 642.087 C 361.876 571.865 437.662 527.501 496.488 470.415 C 517.624 446.039 544.666 426.149 566.224 403.408 C 572.288 396.844 585.523 385.494 592.389 379.005 C 632.488 341.109 676.274 308.02 723.558 279.623 C 734.126 273.277 753.833 260.42 764.963 256.401 C 783.661 246.227 806.453 235.699 826.822 229.101 z"/>
    <path transform="translate(0,0)" fill="rgb(254,238,210)" d="M 1545.01 476.329 C 1521.18 554.408 1413.29 506.942 1382.46 459.158 C 1366.22 433.991 1358.89 400.388 1388.99 380.569 C 1408.07 368.007 1430.66 370.338 1452.1 374.601 C 1455.57 377.668 1459.02 380.788 1462.52 383.826 C 1492.6 409.952 1516.28 441.709 1546.35 468.07 C 1544.9 471.1 1544.48 472.78 1545.01 476.329 z"/>
    <path transform="translate(0,0)" fill="rgb(254,238,210)" d="M 566.224 403.408 L 567.162 403.21 C 576.158 401.235 584.845 397.677 593.853 395.446 C 615.289 390.195 639.728 390.272 659.156 401.903 C 666.867 406.52 673.291 415.299 674.682 424.222 C 679.288 453.77 652.105 478.653 629.426 492.482 C 610.237 504.086 588.833 513.107 566.5 516.213 C 547.289 518.885 524.994 518.955 508.579 507.006 C 495.493 497.479 493.815 485.323 496.488 470.415 C 517.624 446.039 544.666 426.149 566.224 403.408 z"/>
    <path transform="translate(0,0)" fill="rgb(254,238,210)" d="M 826.822 229.101 C 838.316 228.559 847.616 227.393 859.199 228.222 C 865.975 233.565 870.043 238.501 873.045 246.734 C 881.933 271.261 874.322 299.008 858.041 318.702 C 839.745 340.831 810.883 354.292 782.632 357.479 C 752.831 360.842 715.398 350.398 712.268 315.149 C 711.905 311.06 712.094 306.508 712.184 302.358 C 714.813 300.746 729.242 286.443 732.925 282.948 C 741.944 274.387 757.074 264.424 764.963 256.401 C 783.661 246.227 806.453 235.699 826.822 229.101 z"/>
    <path transform="translate(0,0)" fill="rgb(255,255,255)" d="M 1546.35 468.07 C 1550.74 472.909 1556.04 479.011 1559.59 484.497 C 1555.17 483.992 1548.87 479.013 1545.01 476.329 C 1544.48 472.78 1544.9 471.1 1546.35 468.07 z"/>
    <path transform="translate(0,0)" fill="rgb(254,238,210)" d="M 1212.44 245.425 C 1238.32 245.039 1276 258.103 1295.12 275.611 C 1349.97 325.822 1312.05 380 1246.28 383.134 C 1125.87 384.797 1085.34 254.585 1212.44 245.425 z"/>
    <path transform="translate(0,0)" fill="rgb(254,238,210)" d="M 941.196 351.4 C 988.795 345.534 1062.28 375.653 1035.47 436.815 C 1023.07 465.08 987.629 480.105 958.52 484.742 C 920.224 489.136 863.226 475.812 858.007 428.389 C 853.232 384.986 902.253 355.41 941.196 351.4 z"/>
    <path transform="translate(0,0)" fill="rgb(254,238,210)" d="M 1225.37 447.279 C 1248.97 445.006 1281.89 453.33 1289.76 478.866 C 1291.89 485.641 1291.21 492.989 1287.87 499.255 C 1281.87 510.482 1270.86 514.836 1259.56 518.272 C 1243.01 520.983 1229.23 519.126 1214.42 510.403 C 1199 501.524 1184.96 479.61 1196.34 462.537 C 1202.83 452.809 1214.48 449.118 1225.37 447.279 z"/>
    <path transform="translate(0,0)" fill="rgb(254,238,210)" d="M 1609.93 564.798 C 1645.42 585.663 1647.62 633.036 1598.43 625.024 C 1584.34 619.252 1563.97 603.437 1571.95 584.249 C 1578.32 568.92 1595.31 571.749 1607.92 569.358 C 1609.13 569.129 1609.56 566.052 1609.93 564.798 z"/>
    <path transform="translate(0,0)" fill="rgb(254,238,210)" d="M 1030.05 218.179 L 1032.01 218.195 C 1040.24 228.306 1053.41 234.928 1054.03 250.467 C 1054.67 266.612 1042.88 271.725 1028.7 272.468 C 1017.07 268.584 1006.41 261.172 1003.5 248.758 C 998.895 229.104 1014.56 221.787 1030.05 218.179 z"/>
    <path transform="translate(0,0)" fill="rgb(254,238,210)" d="M 705.895 491.103 C 737.311 487.703 732.398 510.42 713.312 523.482 C 706.924 527.853 701.77 529.048 694.522 530.855 C 681.393 532.3 665.608 529.675 674.738 512.195 C 680.954 500.294 693.511 494.643 705.895 491.103 z"/>
    <path transform="translate(0,0)" fill="rgb(254,238,210)" d="M 506.482 625.727 C 512.357 646.665 544.185 680.736 563.366 691.515 C 559.803 696.007 556.04 700.557 552.809 705.273 C 540.46 724.09 535.745 732.777 525.953 753.266 C 523.48 758.671 521.159 763.13 519.744 768.92 C 513.509 789.171 510.664 801.321 507.594 822.385 C 507.347 827.097 506.968 832.233 506.968 836.915 C 506.68 853.961 507.568 864.187 509.485 880.889 L 503.994 891.399 C 462.485 880.73 393.247 841.574 370.053 805.295 C 365.165 799.581 361.996 791.906 359.113 785.028 C 341.437 751.28 361.339 716.468 383.978 691.281 L 385.088 689.863 C 420.237 658.658 456.499 642.601 500.085 627.293 L 506.482 625.727 z"/>
    <path transform="translate(0,0)" fill="rgb(254,238,210)" d="M 506.482 625.727 C 512.357 646.665 544.185 680.736 563.366 691.515 C 559.803 696.007 556.04 700.557 552.809 705.273 C 540.46 724.09 535.745 732.777 525.953 753.266 C 489.568 745.913 457.721 731.852 424.997 714.547 C 414.067 708.766 396.711 692.071 385.088 689.863 C 420.237 658.658 456.499 642.601 500.085 627.293 L 506.482 625.727 z"/>
    <path transform="translate(0,0)" fill="rgb(241,191,142)" d="M 506.482 625.727 C 512.357 646.665 544.185 680.736 563.366 691.515 C 559.803 696.007 556.04 700.557 552.809 705.273 C 523.786 689.445 506.729 658.528 500.085 627.293 L 506.482 625.727 z"/>
    <path transform="translate(0,0)" fill="rgb(254,238,210)" d="M 370.053 805.295 C 375.801 805.308 410.827 822.895 422.071 825.818 C 452.862 833.825 475.57 835.708 506.968 836.915 C 506.68 853.961 507.568 864.187 509.485 880.889 L 503.994 891.399 C 462.485 880.73 393.247 841.574 370.053 805.295 z"/>
    <path transform="translate(0,0)" fill="rgb(241,191,142)" d="M 383.978 691.281 L 385.088 689.863 C 396.711 692.071 414.067 708.766 424.997 714.547 C 457.721 731.852 489.568 745.913 525.953 753.266 C 523.48 758.671 521.159 763.13 519.744 768.92 C 511.841 767.035 503.658 765.867 495.685 763.847 C 456.867 754.014 405.101 726 383.978 691.281 z"/>
    <path transform="translate(0,0)" fill="rgb(241,191,142)" d="M 359.113 785.028 C 389.933 804.022 470.915 820.775 507.594 822.385 C 507.347 827.097 506.968 832.233 506.968 836.915 C 475.57 835.708 452.862 833.825 422.071 825.818 C 410.827 822.895 375.801 805.308 370.053 805.295 C 365.165 799.581 361.996 791.906 359.113 785.028 z"/>
    <path transform="translate(0,0)" fill="rgb(254,238,210)" d="M 1566.35 680.051 C 1569.22 681.235 1573.67 682.9 1576.27 684.305 C 1604.65 697.405 1649.31 721.406 1671.1 743.666 L 1677.19 751.159 C 1698.7 775.86 1702.68 799.637 1689.47 829.889 C 1686.92 835.181 1681.46 843.811 1676.64 847.103 C 1641.94 882.092 1600.62 897.469 1553.88 909.2 C 1547.39 897.118 1540.06 885.427 1533.54 873.424 C 1532.97 872.378 1533.17 867.51 1533.22 865.994 C 1533.93 861.009 1533.83 854.187 1533.93 849.024 C 1533.09 830.704 1531.72 813.886 1527.48 795.987 L 1523.25 779.025 C 1517.8 762.767 1514.38 753.686 1506.64 738.752 C 1505.2 735.257 1500.82 727.559 1498.86 723.902 C 1504.82 720.869 1514.32 717.453 1520.76 714.49 C 1539.19 706.016 1553.36 695.68 1566.35 680.051 z"/>
    <path transform="translate(0,0)" fill="rgb(254,238,210)" d="M 1566.35 680.051 C 1569.22 681.235 1573.67 682.9 1576.27 684.305 C 1604.65 697.405 1649.31 721.406 1671.1 743.666 C 1634.66 774.644 1569.08 779.304 1523.25 779.025 C 1517.8 762.767 1514.38 753.686 1506.64 738.752 C 1505.2 735.257 1500.82 727.559 1498.86 723.902 C 1504.82 720.869 1514.32 717.453 1520.76 714.49 C 1539.19 706.016 1553.36 695.68 1566.35 680.051 z"/>
    <path transform="translate(0,0)" fill="rgb(241,191,142)" d="M 1566.35 680.051 C 1569.22 681.235 1573.67 682.9 1576.27 684.305 L 1575.69 684.954 C 1570.12 691.197 1565.54 697.904 1559.82 704.331 C 1547.93 717.704 1523.92 734.074 1506.64 738.752 C 1505.2 735.257 1500.82 727.559 1498.86 723.902 C 1504.82 720.869 1514.32 717.453 1520.76 714.49 C 1539.19 706.016 1553.36 695.68 1566.35 680.051 z"/>
    <path transform="translate(0,0)" fill="rgb(254,238,210)" d="M 1533.22 865.994 C 1536.1 864.069 1575.09 868.12 1583.22 867.803 C 1603.07 867.029 1619.32 864.939 1638.73 860.455 C 1645.7 858.847 1673.54 846.483 1676.64 847.103 C 1641.94 882.092 1600.62 897.469 1553.88 909.2 C 1547.39 897.118 1540.06 885.427 1533.54 873.424 C 1532.97 872.378 1533.17 867.51 1533.22 865.994 z"/>
    <path transform="translate(0,0)" fill="rgb(241,191,142)" d="M 1671.1 743.666 L 1677.19 751.159 C 1669.69 756.979 1661.3 765.751 1653.65 770.626 C 1620.9 791.497 1565.94 801.818 1527.48 795.987 L 1523.25 779.025 C 1569.08 779.304 1634.66 774.644 1671.1 743.666 z"/>
    <path transform="translate(0,0)" fill="rgb(241,191,142)" d="M 1533.93 849.024 C 1581.53 855.973 1643.87 843.37 1689.47 829.889 C 1686.92 835.181 1681.46 843.811 1676.64 847.103 C 1673.54 846.483 1645.7 858.847 1638.73 860.455 C 1619.32 864.939 1603.07 867.029 1583.22 867.803 C 1575.09 868.12 1536.1 864.069 1533.22 865.994 C 1533.93 861.009 1533.83 854.187 1533.93 849.024 z"/>
    <path transform="translate(0,0)" fill="rgb(254,238,210)" d="M 952.972 572.894 L 961.001 572.92 C 1020.58 572.428 1080.15 574.789 1139.51 579.996 C 1153.22 581.256 1175.28 582.631 1188.16 584.714 C 1178.26 617.384 1166.66 645.61 1141.23 669.4 C 1087.31 660.956 1041.6 658.743 987.59 659.665 C 980.489 659.785 974.994 659.915 967.945 660.655 C 966.001 653.937 961.987 644.828 959.726 637.514 C 952.564 614.344 951.64 596.539 952.972 572.894 z"/>
    <path transform="translate(0,0)" fill="rgb(241,191,142)" d="M 952.972 572.894 L 961.001 572.92 C 969.54 613.09 964.801 618.996 987.59 659.665 C 980.489 659.785 974.994 659.915 967.945 660.655 C 966.001 653.937 961.987 644.828 959.726 637.514 C 952.564 614.344 951.64 596.539 952.972 572.894 z"/>
    <path transform="translate(0,0)" fill="rgb(254,238,210)" d="M 818.329 577.016 C 832.014 577.049 850.419 575.49 864.571 574.93 C 894.023 573.728 923.495 573.05 952.972 572.894 C 951.64 596.539 952.564 614.344 959.726 637.514 C 961.987 644.828 966.001 653.937 967.945 660.655 C 937.811 662.96 911.622 665.42 881.546 669.281 C 874.999 670.453 863.281 672.16 857.24 673.736 C 823.938 640.708 815.379 624.218 811.26 577.617 C 812.712 577.347 816.66 577.149 818.329 577.016 z"/>
    <path transform="translate(0,0)" fill="rgb(241,191,142)" d="M 811.26 577.617 C 812.712 577.347 816.66 577.149 818.329 577.016 C 823.671 605.156 855.919 654.955 881.546 669.281 C 874.999 670.453 863.281 672.16 857.24 673.736 C 823.938 640.708 815.379 624.218 811.26 577.617 z"/>
    <path transform="translate(0,0)" fill="rgb(254,238,210)" d="M 654.087 594.298 C 701.522 586.449 763.263 581.091 811.26 577.617 C 815.379 624.218 823.938 640.708 857.24 673.736 C 853.497 674.538 849.759 675.365 846.027 676.218 C 844.159 674.62 842.248 673.072 840.297 671.577 C 788.676 632.127 740.02 618.85 675.755 627.338 C 670.175 628.326 664.621 629.126 659.219 630.801 C 653.09 621.509 649.495 606.353 646.215 595.362 L 654.087 594.298 z"/>
    <path transform="translate(0,0)" fill="rgb(241,191,142)" d="M 646.215 595.362 L 654.087 594.298 C 658.331 606.549 666.979 617.914 675.755 627.338 C 670.175 628.326 664.621 629.126 659.219 630.801 C 653.09 621.509 649.495 606.353 646.215 595.362 z"/>
    <path transform="translate(0,0)" fill="rgb(254,238,210)" d="M 1188.16 584.714 L 1201.05 586.528 C 1238.68 591.158 1268.2 595.615 1305.34 602.082 L 1310.98 603.225 C 1309.31 610.363 1307.35 617.629 1303.88 624.099 C 1299.79 624.568 1295.71 625.059 1291.63 625.573 C 1246.67 638.127 1223.55 646.266 1187.64 678.725 C 1177.48 675.785 1170.68 674.326 1160.43 672.211 C 1156.39 671.128 1145.86 670.005 1141.23 669.4 C 1166.66 645.61 1178.26 617.384 1188.16 584.714 z"/>
    <path transform="translate(0,0)" fill="rgb(241,191,142)" d="M 1188.16 584.714 L 1201.05 586.528 L 1196.21 586.886 C 1194.3 595.784 1193.42 604.777 1191.26 613.775 C 1185.28 638.658 1175.27 652.531 1160.43 672.211 C 1156.39 671.128 1145.86 670.005 1141.23 669.4 C 1166.66 645.61 1178.26 617.384 1188.16 584.714 z"/>
    <path transform="translate(0,0)" fill="rgb(241,191,142)" d="M 1305.34 602.082 L 1310.98 603.225 C 1309.31 610.363 1307.35 617.629 1303.88 624.099 C 1299.79 624.568 1295.71 625.059 1291.63 625.573 C 1296.34 617.826 1300.91 609.994 1305.34 602.082 z"/>
    <path transform="translate(0,0)" fill="rgb(254,238,210)" d="M 506.482 625.727 C 544.822 611.598 605.501 601.979 646.215 595.362 C 649.495 606.353 653.09 621.509 659.219 630.801 C 622.154 641.534 588.909 662.592 563.366 691.515 C 544.185 680.736 512.357 646.665 506.482 625.727 z"/>
    <path transform="translate(0,0)" fill="rgb(254,238,210)" d="M 1422.5 629.463 L 1433.41 632.242 C 1478.71 645.288 1523.11 661.258 1566.35 680.051 C 1553.36 695.68 1539.19 706.016 1520.76 714.49 C 1514.32 717.453 1504.82 720.869 1498.86 723.902 C 1476.17 690.512 1462.41 673.244 1427.57 651.231 L 1409.23 641.408 C 1414.41 639.05 1418.8 633.724 1422.5 629.463 z"/>
    <path transform="translate(0,0)" fill="rgb(241,191,142)" d="M 1422.5 629.463 L 1433.41 632.242 C 1432.31 639.476 1430.68 644.522 1427.57 651.231 L 1409.23 641.408 C 1414.41 639.05 1418.8 633.724 1422.5 629.463 z"/>
    <path transform="translate(0,0)" fill="rgb(254,238,210)" d="M 1310.98 603.225 C 1350.14 610.599 1384.18 617.44 1422.5 629.463 C 1418.8 633.724 1414.41 639.05 1409.23 641.408 C 1369.95 624.517 1345.27 623.622 1303.88 624.099 C 1307.35 617.629 1309.31 610.363 1310.98 603.225 z"/>
    <path transform="translate(0,0)" fill="rgb(254,238,210)" d="M 1422.5 629.463 L 1433.41 632.242 C 1478.71 645.288 1523.11 661.258 1566.35 680.051 C 1553.36 695.68 1539.19 706.016 1520.76 714.49 C 1514.32 717.453 1504.82 720.869 1498.86 723.902 C 1476.17 690.512 1462.41 673.244 1427.57 651.231 L 1409.23 641.408 C 1414.41 639.05 1418.8 633.724 1422.5 629.463 z"/>
    <path transform="translate(0,0)" fill="rgb(241,191,142)" d="M 1422.5 629.463 L 1433.41 632.242 C 1432.31 639.476 1430.68 644.522 1427.57 651.231 L 1409.23 641.408 C 1414.41 639.05 1418.8 633.724 1422.5 629.463 z"/>
  </g>

  <!-- eyes -->
  <g id="eyes">
    <path transform="translate(0,0)" fill="rgb(37,16,4)" d="M 1339.1 973.535 C 1253.87 980.145 1183.08 931.092 1191.3 840.019 C 1195.07 798.985 1215.05 761.147 1246.8 734.888 C 1274.61 712.111 1300.18 706.167 1334.94 709.709 C 1350.32 706.12 1379.47 719.159 1393.02 727.08 C 1475.62 775.337 1487.01 944.56 1380.64 971.019 C 1373.37 972.826 1345.47 977.73 1339.1 973.535 z"/>
    <path transform="translate(0,0)" fill="rgb(255,255,255)" d="M 1334.94 709.709 C 1350.32 706.12 1379.47 719.159 1393.02 727.08 C 1475.62 775.337 1487.01 944.56 1380.64 971.019 C 1373.37 972.826 1345.47 977.73 1339.1 973.535 C 1430.02 954.596 1452.21 832.105 1408.46 761.961 C 1389.8 732.054 1368.87 717.789 1334.94 709.709 z"/>
    <path transform="translate(0,0)" fill="rgb(255,255,255)" d="M 1276.31 734.258 C 1297.87 731.514 1317.64 746.582 1320.7 768.095 C 1323.77 789.608 1309 809.598 1287.54 812.987 C 1273.36 815.224 1259.08 809.652 1250.17 798.406 C 1241.26 787.161 1239.09 771.986 1244.51 758.698 C 1249.93 745.41 1262.08 736.07 1276.31 734.258 z"/>
    <path transform="translate(0,0)" fill="rgb(156,114,96)" d="M 1354.61 894.627 C 1365.08 892.669 1375.19 899.461 1377.34 909.896 C 1379.48 920.332 1372.87 930.563 1362.48 932.896 C 1355.58 934.444 1348.39 932.15 1343.67 926.897 C 1338.95 921.645 1337.43 914.252 1339.69 907.562 C 1341.96 900.871 1347.66 895.926 1354.61 894.627 z"/>
    <path transform="translate(0,0)" fill="rgb(37,16,4)" d="M 698.034 711.565 C 732.023 706.521 760.598 710.708 788.997 731.558 C 844.033 771.964 871.126 866.886 827.813 924.464 C 797.571 964.667 749.131 977.211 701.179 973.39 C 691.559 979.011 651.375 968.516 642.012 963.446 C 547.85 912.462 573.828 741.466 675.836 714.253 C 682.304 712.527 691.969 708.598 698.034 711.565 z"/>
    <path transform="translate(0,0)" fill="rgb(255,255,255)" d="M 701.179 973.39 C 691.559 979.011 651.375 968.516 642.012 963.446 C 547.85 912.462 573.828 741.466 675.836 714.253 C 682.304 712.527 691.969 708.598 698.034 711.565 C 665.795 721.411 646.356 735.836 629.94 766.324 C 609.648 803.8 605.39 847.893 618.134 888.559 C 630.771 929.948 656.918 964.146 701.179 973.39 z"/>
    <path transform="translate(0,0)" fill="rgb(255,255,255)" d="M 721.364 737.794 C 742.562 736.129 761.166 751.803 763.123 772.976 C 765.08 794.149 749.664 812.967 728.519 815.216 C 714.58 816.698 700.922 810.562 692.773 799.156 C 684.624 787.75 683.246 772.84 689.167 760.134 C 695.087 747.427 707.389 738.892 721.364 737.794 z"/>
    <path transform="translate(0,0)" fill="rgb(156,114,96)" d="M 772.572 894.647 C 778.118 893.812 783.755 895.4 788.049 899.007 C 792.343 902.614 794.881 907.892 795.017 913.498 C 795.254 923.29 788.206 931.745 778.531 933.274 C 767.843 934.963 757.817 927.645 756.167 916.951 C 754.517 906.256 761.872 896.257 772.572 894.647 z"/>
  </g>

  <!-- cheeks -->
  <g id="cheeks">
    <path transform="translate(0,0)" fill="#fb9c73" d="M 1477.43 1042.06 C 1473.85 1049.23 1460.87 1058.93 1453.53 1062.51 C 1423.35 1077.2 1379.12 1077.54 1351.92 1055.84 C 1309.31 1021.71 1361.6 974.498 1398.6 969.523 C 1433.85 964.784 1482.38 969.552 1489.21 1013.59 C 1490.78 1023.74 1486.34 1030.48 1480.45 1037.88 L 1477.43 1042.06 z"/>
    <path transform="translate(0,0)" fill="rgb(237,76,68)" d="M 1477.43 1042.06 C 1468.66 1039.41 1466.01 1009.66 1473.44 1004.67 L 1475.22 1005.69 C 1480.78 1015.21 1480.55 1027.21 1480.45 1037.88 L 1477.43 1042.06 z"/>
    <path transform="translate(0,0)" fill="rgb(237,76,68)" d="M 1382.61 995.319 C 1383.46 995.459 1385.74 995.852 1386.15 996.452 C 1394.07 1007.85 1404.93 1050.83 1398.58 1061.46 L 1396.01 1061.04 C 1395.27 1060.42 1393.67 1058.92 1393.51 1058.04 C 1391.44 1046.89 1379.1 1004.33 1382.61 995.319 z"/>
    <path transform="translate(0,0)" fill="rgb(237,76,68)" d="M 1414.59 987.224 C 1415.78 987.491 1418.03 987.854 1418.73 989.111 C 1426.94 1003.99 1444.71 1039.45 1443.19 1055.63 C 1440.44 1054.71 1439.39 1054.69 1437.69 1051.75 C 1431.56 1041.19 1412.5 998.039 1414.59 987.224 z"/>
    <path transform="translate(0,0)" fill="#fb9c73" d="M 607.72 969.266 C 631.818 967.409 649.037 966.688 670.993 978.883 C 725.896 1009.38 718.65 1058.61 655.478 1070.71 C 619.655 1075.06 565.684 1063.28 556.614 1022.12 C 554.427 1012.52 556.355 1002.46 561.93 994.35 C 572.15 979.324 590.486 972.181 607.72 969.266 z"/>
    <path transform="translate(0,0)" fill="rgb(237,76,68)" d="M 627.382 987.236 C 631.472 988.488 629.941 987.366 632.516 990.147 C 633.109 997.46 612.085 1046.92 606.941 1055.61 L 605.468 1055.95 C 595.659 1051.56 623.161 996.011 627.382 987.236 z"/>
    <path transform="translate(0,0)" fill="rgb(237,76,68)" d="M 660.882 993.4 C 666.252 995.763 664.846 1003.8 663.448 1008.28 C 659.49 1020.97 657.55 1050.85 650.765 1060.62 C 648.427 1059 646.008 1057.15 646.141 1053.93 C 646.751 1039.21 652.709 1004.32 660.882 993.4 z"/>
  </g>

  <!-- mouth -->
  <g id="mouth">
    <path transform="translate(0,0)" fill="rgb(37,16,4)" d="M 907.852 930.037 C 920.557 929.246 921.986 939.526 928.957 948.952 C 944.795 970.368 975.937 969.667 996.103 955.497 C 1015.53 941.269 1019.51 930.521 1038.9 948.98 C 1066.6 975.349 1107.86 971.181 1122.73 934.949 C 1126.92 924.73 1147.84 928.827 1138.29 950.024 C 1135.27 955.521 1132.54 960.127 1128.38 964.877 C 1117.43 977.189 1102.07 984.69 1085.63 985.754 C 1062.27 987.27 1039.44 978.4 1022.06 963.01 C 990.885 990.328 941.761 996.241 912.063 962.471 C 903.766 953.036 895.743 939.809 907.852 930.037 z"/>
  </g>

</svg>
